<svg id="home" viewBox="0 0 14 12"><path d="M5.65625 11.3438H2.34375V6H0.34375L7 0L13.6562 6H11.6562V11.3438H8.34375V7.34375H5.65625V11.3438Z" fill="currentColor"/></svg>



<svg id="chats1" width="14" height="14" viewBox="0 0 14 14" fill="none" xmlns="http://www.w3.org/2000/svg">
  <path d="M11 4.34375V3H3V4.34375H11ZM8.34375 8.34375V7H3V8.34375H8.34375ZM3 5V6.34375H11V5H3ZM12.3438 0.34375C12.6979 0.34375 13 0.479167 13.25 0.75C13.5208 1 13.6562 1.30208 13.6562 1.65625V9.65625C13.6562 10.0104 13.5208 10.3229 13.25 10.5938C13 10.8646 12.6979 11 12.3438 11H3L0.34375 13.6562V1.65625C0.34375 1.30208 0.46875 1 0.71875 0.75C0.989583 0.479167 1.30208 0.34375 1.65625 0.34375H12.3438Z" fill="currentColor"/>
</svg>

<svg width="12" height="12" viewBox="0 0 12 12" fill="none" xmlns="http://www.w3.org/2000/svg">
<g id="chats">
  <path d="M2.21875 6.46875C2.80208 7.05208 3.51042 7.34375 4.34375 7.34375C5.17708 7.34375 5.88542 7.05208 6.46875 6.46875C7.05208 5.88542 7.34375 5.17708 7.34375 4.34375C7.34375 3.51042 7.05208 2.80208 6.46875 2.21875C5.88542 1.63542 5.17708 1.34375 4.34375 1.34375C3.51042 1.34375 2.80208 1.63542 2.21875 2.21875C1.63542 2.80208 1.34375 3.51042 1.34375 4.34375C1.34375 5.17708 1.63542 5.88542 2.21875 6.46875ZM8.34375 7.34375L11.6562 10.6562L10.6562 11.6562L7.34375 8.34375V7.8125L7.15625 7.625C6.36458 8.3125 5.42708 8.65625 4.34375 8.65625C3.13542 8.65625 2.10417 8.23958 1.25 7.40625C0.416667 6.57292 0 5.55208 0 4.34375C0 3.13542 0.416667 2.11458 1.25 1.28125C2.10417 0.427083 3.13542 0 4.34375 0C5.55208 0 6.57292 0.427083 7.40625 1.28125C8.23958 2.11458 8.65625 3.13542 8.65625 4.34375C8.65625 4.78125 8.55208 5.28125 8.34375 5.84375C8.13542 6.38542 7.89583 6.82292 7.625 7.15625L7.8125 7.34375H8.34375Z" fill="white"/>
</g>
</svg>





<svg id="search1" width="12" height="12" viewBox="0 0 12 12" fill="none" xmlns="http://www.w3.org/2000/svg">
<path d="M2.21875 6.46875C2.80208 7.05208 3.51042 7.34375 4.34375 7.34375C5.17708 7.34375 5.88542 7.05208 6.46875 6.46875C7.05208 5.88542 7.34375 5.17708 7.34375 4.34375C7.34375 3.51042 7.05208 2.80208 6.46875 2.21875C5.88542 1.63542 5.17708 1.34375 4.34375 1.34375C3.51042 1.34375 2.80208 1.63542 2.21875 2.21875C1.63542 2.80208 1.34375 3.51042 1.34375 4.34375C1.34375 5.17708 1.63542 5.88542 2.21875 6.46875ZM8.34375 7.34375L11.6562 10.6562L10.6562 11.6562L7.34375 8.34375V7.8125L7.15625 7.625C6.36458 8.3125 5.42708 8.65625 4.34375 8.65625C3.13542 8.65625 2.10417 8.23958 1.25 7.40625C0.416667 6.57292 0 5.55208 0 4.34375C0 3.13542 0.416667 2.11458 1.25 1.28125C2.10417 0.427083 3.13542 0 4.34375 0C5.55208 0 6.57292 0.427083 7.40625 1.28125C8.23958 2.11458 8.65625 3.13542 8.65625 4.34375C8.65625 4.78125 8.55208 5.28125 8.34375 5.84375C8.13542 6.38542 7.89583 6.82292 7.625 7.15625L7.8125 7.34375H8.34375Z" fill="currentColor"/>
</svg>


<svg width="12" height="12" viewBox="0 0 12 12" fill="none" xmlns="http://www.w3.org/2000/svg">
<path id="search" d="M2.21875 6.46875C2.80208 7.05208 3.51042 7.34375 4.34375 7.34375C5.17708 7.34375 5.88542 7.05208 6.46875 6.46875C7.05208 5.88542 7.34375 5.17708 7.34375 4.34375C7.34375 3.51042 7.05208 2.80208 6.46875 2.21875C5.88542 1.63542 5.17708 1.34375 4.34375 1.34375C3.51042 1.34375 2.80208 1.63542 2.21875 2.21875C1.63542 2.80208 1.34375 3.51042 1.34375 4.34375C1.34375 5.17708 1.63542 5.88542 2.21875 6.46875ZM8.34375 7.34375L11.6562 10.6562L10.6562 11.6562L7.34375 8.34375V7.8125L7.15625 7.625C6.36458 8.3125 5.42708 8.65625 4.34375 8.65625C3.13542 8.65625 2.10417 8.23958 1.25 7.40625C0.416667 6.57292 0 5.55208 0 4.34375C0 3.13542 0.416667 2.11458 1.25 1.28125C2.10417 0.427083 3.13542 0 4.34375 0C5.55208 0 6.57292 0.427083 7.40625 1.28125C8.23958 2.11458 8.65625 3.13542 8.65625 4.34375C8.65625 4.78125 8.55208 5.28125 8.34375 5.84375C8.13542 6.38542 7.89583 6.82292 7.625 7.15625L7.8125 7.34375H8.34375Z" fill="white"/>
</svg>



<svg id="arrow" width="16" height="16" viewBox="0 0 16 16" fill="none" xmlns="http://www.w3.org/2000/svg">
<path d="M5.22266 11.4453L8.66797 8L5.22266 4.55469L6.27734 3.5L10.7773 8L6.27734 12.5L5.22266 11.4453Z" fill="currentColor"/>
</svg>


